<?xml version="1.0" encoding="utf-8"?>
<!-- Generator: Adobe Illustrator 22.0.1, SVG Export Plug-In . SVG Version: 6.00 Build 0)  -->
<svg version="1.1" id="Layer_1" xmlns="http://www.w3.org/2000/svg" xmlns:xlink="http://www.w3.org/1999/xlink" x="0px" y="0px"
	 viewBox="0 0 144 48" style="enable-background:new 0 0 144 48;" xml:space="preserve">
<style type="text/css">
	.st0{fill:#00FFFF;fill-opacity:0;}
	.st1{fill:#FFFFFF;}
</style>
<rect class="st0" width="144" height="48"/>
<g>
	<polygon class="st1" points="2,7.8 7.2,7.8 7.2,30.1 17.5,30.1 17.5,34.7 2,34.7 	"/>
	<path class="st1" d="M20,14.6h4.8v20.1H20V14.6z M20,6.4h4.8v5H20V6.4z"/>
	<path class="st1" d="M41.9,24.2c0-3.4-1.9-5.6-4.8-5.6c-2.8,0-4.8,2.2-4.8,5.5c0,3.4,1.9,5.6,4.8,5.6
		C39.9,29.7,41.9,27.5,41.9,24.2 M33.3,35.6c0.4,1.6,1.7,2.4,3.8,2.4c1.4,0,2.7-0.4,3.5-1s1.1-1.5,1.1-3.3v-1.9
		C39.8,33.4,38.2,34,36,34c-5.3,0-8.8-3.8-8.8-9.7c0-3.1,0.8-5.4,2.6-7.2c1.7-1.7,4.1-2.8,6.5-2.8c2.3,0,3.6,0.6,5.4,2.5v-2.2h4.8
		V34c0,3.3-0.5,4.7-2.2,6c-1.7,1.4-4.2,2-7.3,2c-5.4,0-8.4-2-9-6.3h5.3V35.6z"/>
	<path class="st1" d="M49.5,6.4h4.8v10.2c2.2-1.9,3.8-2.6,6.1-2.6s4.5,1,5.6,2.6c0.8,1.1,1.1,2.7,1.1,5.4v12.8h-4.8V23.1
		c0-3.1-1.1-4.5-3.4-4.5c-2.9,0-4.6,2.3-4.6,6.1v10h-4.8V6.4z"/>
	<path class="st1" d="M80.4,34.9c-1.3,0.2-2.2,0.3-3.1,0.3c-2.3,0-3.8-0.5-4.8-1.5c-0.9-0.9-1.1-1.9-1.1-5.1V18h-2.8v-3.4h2.8V7.5
		h4.8v7.2H80V18h-3.9v10.1c0,1.9,0.6,2.6,2.3,2.6c0.4,0,0.9,0,2-0.2V34.9z"/>
	<path class="st1" d="M92,30.4c2.8,0,4.8-2.5,4.8-6.3s-2-6.2-4.9-6.2s-4.7,2.5-4.7,6.4C87.2,28,89.1,30.4,92,30.4 M82.4,6h4.8v9.8
		c2-1.8,3.4-2.5,5.4-2.5c5.2,0,9.2,4.8,9.2,11.1c0,6-4,10.5-9.2,10.5c-2.3,0-3.8-0.7-5.4-2.6v2h-4.8V6z"/>
	<path class="st1" d="M113.8,30.7c3.1,0,5.1-2.5,5.1-6.3c0-4-2-6.4-5.1-6.4s-5.1,2.5-5.1,6.3C108.7,28.2,110.7,30.7,113.8,30.7
		 M113.8,13.4c6.1,0,10.2,4.4,10.2,11.1c0,6.3-4.3,10.8-10.2,10.8c-6,0-10.2-4.5-10.2-10.9C103.6,17.9,107.8,13.4,113.8,13.4"/>
	<polygon class="st1" points="129.4,23.7 123.3,14.3 128.9,14.3 132.2,19.3 135.5,14.3 140.9,14.3 134.9,23.6 142,34.4 136.4,34.4 
		132.1,27.8 128,34.4 122.5,34.4 	"/>
</g>
</svg>
